# xmcd
# 
# Track frame offsets:
#     150
#     12338
#     28645
#     42346
#     60313
#     72699
#     84962
#     99418
# 
# Disc length: 1579
# 
# Revision: 0
# Processed by: cddbd v1.5.2PL0 Copyright (c) Steve Scherf et al.
# Submitted via: fre:ac v1.0.17
# 
DISCID=5e062908
DTITLE=SA - Beyond I
DYEAR=2007
DGENRE=Punk
TTITLE0=目を覚ませ
TTITLE1=No Heart
TTITLE2=Break Up Rotten City
TTITLE3=No Heart
TTITLE4=Piggie Man
TTITLE5=I See Red
TTITLE6=Always Up!!!!
TTITLE7=Cryin' Johnny
EXTD=
EXTT0=
EXTT1=
EXTT2=
EXTT3=
EXTT4=
EXTT5=
EXTT6=
EXTT7=
PLAYORDER=
